<svg xmlns="http://www.w3.org/2000/svg" xmlns:xlink="http://www.w3.org/1999/xlink" viewBox="0 0 960 460"><defs><style>.cls-1{fill:url(#Degradado_sin_nombre_2);}.cls-2,.cls-8{fill:#fff;}.cls-3{fill:#0535c1;}.cls-4{fill:none;}.cls-5{fill:#eaeaea;}.cls-6{fill:#e1e1e1;}.cls-7{fill:#eee;}.cls-13,.cls-8{fill-opacity:0.2;}.cls-9{fill:#212121;fill-opacity:0.1;}.cls-10{fill:#fff176;}.cls-11{fill:#f4481e;}.cls-12{fill:#fafafa;}.cls-13{fill:#263238;}.cls-14{fill:#00c853;}.cls-15{fill:#fdd835;}.cls-16{fill:#fff9c4;}</style><linearGradient id="Degradado_sin_nombre_2" x1="699.59" y1="610.35" x2="260.41" y2="-150.35" gradientUnits="userSpaceOnUse"><stop offset="0" stop-color="#0535c1"/><stop offset="0.31" stop-color="#0535af"/><stop offset="0.92" stop-color="#063581"/><stop offset="1" stop-color="#06357a"/></linearGradient></defs><g id="Capa_2" data-name="Capa 2"><rect class="cls-1" width="960" height="460"/><path class="cls-2" d="M133.28,280.87h20.89v4.76H127.44V241.55h5.84Z"/><path class="cls-2" d="M160,244.18a3.37,3.37,0,0,1,.83-2.3,3.73,3.73,0,0,1,4.95,0,3.29,3.29,0,0,1,.85,2.3,3.17,3.17,0,0,1-.85,2.27,3.82,3.82,0,0,1-4.95,0A3.24,3.24,0,0,1,160,244.18ZM166,285.63h-5.6V252.87H166Z"/><path class="cls-2" d="M173.63,269q0-7.67,3.55-12.19a12.21,12.21,0,0,1,18.74-.29l.27-3.63h5.11v32q0,6.36-3.77,10t-10.12,3.66a16.82,16.82,0,0,1-6.93-1.51,11.87,11.87,0,0,1-5.18-4.15l2.91-3.36A10.92,10.92,0,0,0,187,294a8.62,8.62,0,0,0,6.38-2.3,8.8,8.8,0,0,0,2.28-6.48v-2.81a11.5,11.5,0,0,1-9.17,3.87,11.19,11.19,0,0,1-9.31-4.63Q173.64,277,173.63,269Zm5.63.63c0,3.69.76,6.6,2.28,8.71a7.38,7.38,0,0,0,6.35,3.16,8.21,8.21,0,0,0,7.78-4.81v-15A8.29,8.29,0,0,0,188,257a7.43,7.43,0,0,0-6.38,3.18C180,262.32,179.26,265.45,179.26,269.61Z"/><path class="cls-2" d="M215.35,256.84a11.9,11.9,0,0,1,9.69-4.58q10.38,0,10.47,11.72v21.65h-5.6V264q0-3.54-1.62-5.24T223.34,257a8.07,8.07,0,0,0-4.78,1.45,9.9,9.9,0,0,0-3.21,3.82v23.34h-5.6v-46.5h5.6Z"/><path class="cls-2" d="M251.5,244.94v7.93h6.11v4.33H251.5v20.34a4.55,4.55,0,0,0,.81,2.95,3.45,3.45,0,0,0,2.79,1,13.6,13.6,0,0,0,2.66-.36v4.51a16.32,16.32,0,0,1-4.3.6A7,7,0,0,1,247.8,284a9.75,9.75,0,0,1-1.9-6.45V257.2h-6v-4.33h6v-7.93Z"/><path class="cls-2" d="M269.75,256.84a11.9,11.9,0,0,1,9.69-4.58q10.38,0,10.47,11.72v21.65h-5.6V264q0-3.54-1.62-5.24T277.74,257a8.07,8.07,0,0,0-4.78,1.45,9.9,9.9,0,0,0-3.21,3.82v23.34h-5.6v-46.5h5.6Z"/><path class="cls-2" d="M296.82,269a19.36,19.36,0,0,1,1.89-8.66,14.13,14.13,0,0,1,5.27-5.94,14.34,14.34,0,0,1,7.7-2.09,13.8,13.8,0,0,1,10.82,4.64q4.14,4.62,4.14,12.32v.39a19.37,19.37,0,0,1-1.84,8.58,13.83,13.83,0,0,1-5.23,5.92,14.45,14.45,0,0,1-7.83,2.12A13.76,13.76,0,0,1,301,281.6q-4.14-4.64-4.13-12.26Zm5.63.66a14,14,0,0,0,2.53,8.75,8.56,8.56,0,0,0,13.54,0Q321,275,321,269a14,14,0,0,0-2.56-8.74,8.13,8.13,0,0,0-6.8-3.34,8.05,8.05,0,0,0-6.69,3.3C303.29,262.37,302.45,265.51,302.45,269.61Z"/><path class="cls-2" d="M353.88,282.39q-3.27,3.84-9.59,3.84-5.25,0-8-3t-2.77-9V252.87h5.6V274q0,7.46,6.05,7.45,6.42,0,8.54-4.78V252.87h5.6v32.76H354Z"/><path class="cls-2" d="M386.91,276.94a4.12,4.12,0,0,0-1.71-3.53,16.34,16.34,0,0,0-6-2.16,28.85,28.85,0,0,1-6.76-2.18,9.68,9.68,0,0,1-3.69-3,7.21,7.21,0,0,1-1.19-4.18,8.5,8.5,0,0,1,3.4-6.81,13.29,13.29,0,0,1,8.71-2.79,13.66,13.66,0,0,1,9,2.88,9.15,9.15,0,0,1,3.47,7.36h-5.63a5,5,0,0,0-2-4,7.3,7.3,0,0,0-4.91-1.66,7.66,7.66,0,0,0-4.79,1.33,4.19,4.19,0,0,0-1.72,3.48,3.4,3.4,0,0,0,1.6,3.06,20,20,0,0,0,5.8,2,29.75,29.75,0,0,1,6.79,2.24,9.76,9.76,0,0,1,3.86,3.13,7.68,7.68,0,0,1,1.26,4.46,8.37,8.37,0,0,1-3.51,7,14.7,14.7,0,0,1-9.11,2.65,16.49,16.49,0,0,1-7-1.39,11.4,11.4,0,0,1-4.73-3.89,9.4,9.4,0,0,1-1.71-5.41h5.6a5.8,5.8,0,0,0,2.25,4.47,8.76,8.76,0,0,0,5.56,1.65,9,9,0,0,0,5.1-1.29A3.94,3.94,0,0,0,386.91,276.94Z"/><path class="cls-2" d="M413.4,286.23a14.34,14.34,0,0,1-10.84-4.37q-4.17-4.38-4.18-11.7v-1a19.59,19.59,0,0,1,1.87-8.71,14.49,14.49,0,0,1,5.2-6,13.13,13.13,0,0,1,7.25-2.17q6.39,0,9.93,4.21t3.54,12v2.33H404a11.68,11.68,0,0,0,2.83,7.83,8.91,8.91,0,0,0,6.89,3,9.76,9.76,0,0,0,5-1.21,12.73,12.73,0,0,0,3.6-3.21l3.42,2.66Q421.64,286.23,413.4,286.23Zm-.7-29.36a7.47,7.47,0,0,0-5.69,2.46,12,12,0,0,0-2.84,6.92h16.4v-.42a10.63,10.63,0,0,0-2.3-6.62A7,7,0,0,0,412.7,256.87Z"/><path class="cls-2" d="M147.3,185.11v6.73h16.09c-.49,3.78-1.75,6.54-3.67,8.48a16.44,16.44,0,0,1-12.42,4.93,17.9,17.9,0,0,1,0-35.79,17.09,17.09,0,0,1,12.12,4.82l4.73-4.74a23.24,23.24,0,0,0-16.85-6.84c-13.57,0-25,11.06-25,24.63S133.73,212,147.3,212c7.33,0,12.86-2.41,17.18-6.89s5.83-10.7,5.83-15.73a21.42,21.42,0,0,0-.36-4.22Z"/><path class="cls-2" d="M190.42,179.64a15.9,15.9,0,1,0,16,15.9A15.67,15.67,0,0,0,190.42,179.64Zm0,25.53c-4.82,0-9-4-9-9.63s4.15-9.63,9-9.63,9,3.91,9,9.63S195.23,205.17,190.42,205.17Z"/><path class="cls-2" d="M268.61,183.2h-.24a11,11,0,0,0-8.37-3.56c-7.94,0-14.86,6.92-14.86,15.9s6.92,15.89,14.86,15.89a10.84,10.84,0,0,0,8.37-3.61h.24V210c0,6.07-3.25,9.33-8.48,9.33a8.8,8.8,0,0,1-8-5.67L246,216.22a15.15,15.15,0,0,0,14.09,9.38c8.18,0,15.1-4.81,15.1-16.55V180.46h-6.62Zm-8,22c-4.82,0-8.48-4.11-8.48-9.63s3.66-9.63,8.48-9.63,8.48,4.1,8.48,9.68S265.36,205.17,260.6,205.17Z"/><path class="cls-2" d="M226,179.64a15.9,15.9,0,1,0,15.95,15.9A15.66,15.66,0,0,0,226,179.64Zm0,25.53c-4.82,0-9-4-9-9.63s4.16-9.63,9-9.63,9,3.91,9,9.63S230.8,205.17,226,205.17Z"/><path class="cls-2" d="M280.71,163.36h6.86v48.07h-6.86Z"/><path class="cls-2" d="M308.78,205.17a8.1,8.1,0,0,1-7.72-4.82l21.26-8.78-.71-1.81c-1.31-3.55-5.36-10.12-13.6-10.12s-15,6.43-15,15.9a15.53,15.53,0,0,0,15.76,15.89,15.85,15.85,0,0,0,13.24-7l-5.42-3.61a9.09,9.09,0,0,1-7.82,4.38Zm-.49-19.57c2.81,0,5.22,1.45,6,3.51L299.94,195C299.94,188.37,304.67,185.6,308.29,185.6Z"/><circle class="cls-3" cx="686.7" cy="213.54" r="154.53"/><path class="cls-4" d="M720.07,129.26h91.31v91.31H720.07Z"/><path class="cls-5" d="M788.55,167.3h-9.24a28.54,28.54,0,1,0-26.9,38h36.14a19,19,0,0,0,0-38Z"/><path class="cls-6" d="M752.41,148.29,767.84,197c5.15-5.17,13.1-12.31,13.1-20.18a28.54,28.54,0,0,0-28.54-28.54Z"/><circle class="cls-7" cx="752.41" cy="176.82" r="28.54"/><path class="cls-8" d="M752.41,148.76a28.54,28.54,0,0,1,28.53,28.3v-.23a28.54,28.54,0,0,0-57.07,0V177a28.55,28.55,0,0,1,28.54-28.28Z"/><path class="cls-9" d="M788.55,204.87H752.4a28.55,28.55,0,0,1-28.53-28.31v.24a28.55,28.55,0,0,0,28.54,28.53h36.14a19,19,0,0,0,19-19v-.24a19,19,0,0,1-19,18.8Z"/><path class="cls-10" d="M644.56,124h80.77v70.24H644.56Z"/><path class="cls-2" d="M635.78,231.1h96.58v96.58H635.78Z"/><path class="cls-11" d="M742.89,187.21h14.05V215.3H616.46V187.21h14V131L686.7,95.89,742.89,131Zm-28.09,0V146.59L686.7,129l-28.09,17.56v40.62Z"/><path class="cls-11" d="M610.23,347.85,634,187.21H739.38l23.8,160.64a154.73,154.73,0,0,1-152.95,0ZM718.16,235.68l-66.09,21.47-8,54.22,81.42-26.46Z"/><path class="cls-4" d="M565.54,159.11H670.9V264.47H565.54Z"/><path class="cls-12" d="M644.56,203H633.89a32.92,32.92,0,1,0-31,43.9h41.7a22,22,0,0,0,0-43.9Z"/><path class="cls-8" d="M666.51,225.22V225a22,22,0,0,0-22-22h-11v.55h11a22,22,0,0,1,22,21.66Z"/><path class="cls-6" d="M602.86,181.06l17.79,56.2c6-6,15.12-14.2,15.12-23.29a32.94,32.94,0,0,0-32.92-32.92Z"/><circle class="cls-2" cx="602.86" cy="213.99" r="32.93"/><path class="cls-8" d="M602.86,181.61a32.94,32.94,0,0,1,32.92,32.66V214a32.93,32.93,0,1,0-65.85,0v.26a32.94,32.94,0,0,1,32.93-32.64Z"/><path class="cls-9" d="M644.56,246.36H602.85a32.94,32.94,0,0,1-32.92-32.66V214a33,33,0,0,0,32.93,32.93h41.7a22,22,0,0,0,22-21.95v-.27A22,22,0,0,1,644.56,246.36Z"/><path class="cls-13" d="M841.21,212.74a154.51,154.51,0,0,1-309,0c0,.28,0,.54,0,.8a154.53,154.53,0,1,0,309.05,0Z"/><path class="cls-14" d="M600.13,399c43,0,43-27.84,86-27.84s43,27.84,86,27.84c36.43,0,42-20.06,69.18-26.2-37.05-20.26-92.31-33.15-154.12-33.15s-117.89,13.09-154.93,33.56C558.37,379.58,564.11,399,600.13,399Z"/><circle class="cls-15" cx="741.07" cy="69.06" r="2.39"/><circle class="cls-16" cx="777.78" cy="223.16" r="4.26"/><circle class="cls-16" cx="508.53" cy="166.33" r="4.26"/><circle class="cls-16" cx="563.88" cy="251.81" r="4.26"/><circle class="cls-16" cx="763.28" cy="123.33" r="4.26"/><circle class="cls-16" cx="832.55" cy="245.55" r="4.26"/><circle class="cls-15" cx="499.5" cy="261.22" r="2.39"/><circle class="cls-15" cx="521.82" cy="212.5" r="2.39"/><circle class="cls-15" cx="536.81" cy="199.89" r="2.39"/><circle class="cls-15" cx="600.02" cy="143.5" r="2.39"/><circle class="cls-15" cx="799.85" cy="150.32" r="2.39"/><circle class="cls-15" cx="894.73" cy="251.17" r="2.38"/><circle class="cls-15" cx="559.98" cy="136.18" r="2.39"/><circle class="cls-15" cx="773.27" cy="252.19" r="2.38"/><circle class="cls-15" cx="846.35" cy="191.72" r="2.39"/></g></svg>